<?xml version="1.0" encoding="UTF-8"?>
<!-- Uploaded to: SVG Repo, www.svgrepo.com, Generator: SVG Repo Mixer Tools -->
<svg width="800px" height="800px" viewBox="-2.5 0 32 32" version="1.1" xmlns="http://www.w3.org/2000/svg" xmlns:xlink="http://www.w3.org/1999/xlink">
    
    <title>document</title>
    <desc>Created with Sketch.</desc>
    <defs>
        <linearGradient x1="50%" y1="0%" x2="50%" y2="100%" id="linearGradient-1">
            <stop stop-color="#EDEEF4" offset="0%">
</stop>
            <stop stop-color="#D7D8E6" offset="100%">
</stop>
        </linearGradient>
        <linearGradient x1="50%" y1="0%" x2="50%" y2="98.6230799%" id="linearGradient-2">
            <stop stop-color="#DEDEE7" offset="0%">
</stop>
            <stop stop-color="#CFD0E8" offset="100%">
</stop>
        </linearGradient>
        <linearGradient x1="100%" y1="50%" x2="0%" y2="50%" id="linearGradient-3">
            <stop stop-color="#C3C4D4" offset="0%">
</stop>
            <stop stop-color="#AEAFC8" offset="100%">
</stop>
        </linearGradient>
    </defs>
    <g id="icons" stroke="none" stroke-width="1" fill="none" fill-rule="evenodd">
        <g id="ui-gambling-website-lined-icnos-casinoshunter" transform="translate(-1906.000000, -1905.000000)" fill-rule="nonzero">
            <g id="4" transform="translate(50.000000, 1871.000000)">
                <g id="document" transform="translate(1856.000000, 34.000000)">
                    <path d="M21.017693,0 C21.5041785,0 21.9739852,0.177316999 22.3391528,0.498752565 L26.3214599,4.00414329 C26.7528128,4.38383791 27,4.9307314 27,5.50539073 L27,29 C27,30.6568542 25.6568542,32 24,32 L3,32 C1.34314575,32 0,30.6568542 0,29 L0,3 C0,1.34314575 1.34314575,0 3,0 L21.017693,0 Z" id="paper" fill="url(#linearGradient-1)">
</path>
                    <path d="M21.017693,0 C21.5041785,0 21.9739852,0.177316999 22.3391528,0.498752565 L26.3214599,4.00414329 C26.7528128,4.38383791 27,4.9307314 27,5.50539073 L27,7 L24,7 C22.3431458,7 21,5.65685425 21,4 L21,0 L21.017693,0 Z" id="Combined-Shape" fill="url(#linearGradient-2)">
</path>
                    <path d="M19,11 C19.5522847,11 20,11.4477153 20,12 C20,12.5522847 19.5522847,13 19,13 L8,13 C7.44771525,13 7,12.5522847 7,12 C7,11.4477153 7.44771525,11 8,11 L19,11 Z" id="Rectangle" fill="url(#linearGradient-3)">
</path>
                    <path d="M19,15 C19.5522847,15 20,15.4477153 20,16 C20,16.5522847 19.5522847,17 19,17 L8,17 C7.44771525,17 7,16.5522847 7,16 C7,15.4477153 7.44771525,15 8,15 L19,15 Z" id="Rectangle-Copy-22" fill="url(#linearGradient-3)">
</path>
                    <path d="M19,19 C19.5522847,19 20,19.4477153 20,20 C20,20.5522847 19.5522847,21 19,21 L8,21 C7.44771525,21 7,20.5522847 7,20 C7,19.4477153 7.44771525,19 8,19 L19,19 Z" id="Rectangle-Copy-23" fill="url(#linearGradient-3)">
</path>
                </g>
            </g>
        </g>
    </g>
</svg>